<svg xmlns="http://www.w3.org/2000/svg" width="961" height="961" viewBox="0 0 31 31"><path d="M1 1h7v7h-7zM9 1h2v2h-1v1h-1zM12 1h1v1h1v1h-1v1h1v-1h1v-1h-1v-1h2v2h1v1h-2v1h1v1h-3v1h-1v-1h-1v-2h1zM19 1h1v1h-1zM23 1h7v7h-7zM2 2v5h5v-5zM17 2h2v1h-2zM20 2h1v2h-1v1h1v-1h1v5h-1v-2h-1v2h1v1h-3v-1h1v-2h-1v2h-1v-5h2v-1h1zM24 2v5h5v-5zM3 3h3v3h-3zM25 3h3v3h-3zM9 5h1v1h-1zM9 7h1v1h-1zM11 7h1v1h-1zM13 7h1v1h-1zM15 7h1v2h1v2h6v1h-4v1h-2v-1h-1v-1h-1v1h-1v1h-1v-2h-3v-1h1v-1h1v1h1v-1h1v1h1v-1h-1v-1h1zM10 8h1v1h-1zM1 9h1v1h-1zM4 9h6v1h-3v1h-1v1h-1v-2h-1zM22 9h1v1h-1zM25 9h1v1h1v2h-1v1h-1zM27 9h3v1h-3zM2 10h1v1h-1zM7 11h2v1h-2zM3 12h1v1h-1zM9 12h3v1h-1v3h-1v-2h-6v-1h5zM23 12h1v1h1v1h1v-1h1v1h1v1h-1v1h2v1h-1v2h-1v-2h-1v-2h-1v1h-1v-1h-1v-1h-1v2h2v1h-1v1h-1v-1h-1v-1h-1v1h-1v-4h4zM28 12h1v2h-1zM12 13h1v1h1v1h-1v1h-1zM1 14h2v1h-2zM15 14h3v2h-2v-1h-1zM20 14v1h1v-1zM6 15h2v1h-2zM14 15h1v1h-1zM29 15h1v1h-1zM2 16h1v1h2v-1h1v1h3v1h-3v1h2v1h-1v1h-2v-3h-1v3h1v1h-4v-5h1zM9 16h1v1h-1zM11 16h1v1h-1zM10 17h1v1h-1zM13 17h2v1h-1v1h-1zM18 17h1v1h2v1h-3zM24 17h1v1h-1zM29 17h1v1h-1zM9 18h1v2h1v1h-3v-1h1zM11 18h1v2h-1zM16 18h1v2h1v2h-1v-1h-1v-1h-1v-1h1zM25 18h1v1h-1zM22 19h2v1h-2zM29 19h1v2h-1v1h-1v2h-1v1h-1v1h-3v1h3v-1h2v1h1v-1h1v3h-1v-1h-1v1h-2v1h-2v-1h-1v1h-1v-3h-1v-3h-1v1h-1v1h-1v-1h-1v-1h1v-1h2v-1h1v-2h1v1h2v-1h1v1h2v-1h2zM12 20h1v1h-1zM14 20h1v2h2v2h-1v-1h-1v3h1v1h-1v1h-1v-6h-1v-1h1zM19 20h1v1h-1zM7 21h1v1h-1zM11 21h1v2h-1zM9 22h1v2h1v1h-1v2h-1zM22 22v3h3v-3zM26 22v1h1v-1zM29 22h1v1h-1zM1 23h7v7h-7zM12 23h1v1h-1zM23 23h1v1h-1zM2 24v5h5v-5zM28 24h2v1h-1v1h-1zM3 25h3v3h-3zM11 25h2v1h-2zM16 25h1v1h-1zM17 26h1v3h-1v-1h-1v-1h1zM11 27h1v2h3v-1h1v1h1v1h-6v-1h-1v-1h1zM20 27h1v1h-1zM19 28h1v1h1v1h-2zM9 29h1v1h-1z"/></svg>